<svg xmlns="http://www.w3.org/2000/svg" viewBox="0 0 384 512" width="384" height="512">
	<style>
		tspan { white-space:pre }
		.shp0 { fill: #a4a4a4 } 
	</style>
	<g id="Layer">
		<g id="Layer">
			<path id="Layer" class="shp0" d="M202.71 176.73L181.29 176.73C171.84 176.73 164.15 169.05 164.15 159.6C164.15 150.15 171.84 142.47 181.29 142.47L224.13 142.47C232.42 142.47 239.13 135.75 239.13 127.47C239.13 119.18 232.42 112.47 224.13 112.47L207 112.47L207 95.33C207 87.05 200.28 80.33 192 80.33C183.71 80.33 177 87.05 177 95.33L177 112.67C153.01 114.85 134.15 135.06 134.15 159.6C134.15 185.59 155.3 206.73 181.29 206.73L202.71 206.73C212.16 206.73 219.84 214.42 219.84 223.87C219.84 233.31 212.16 241 202.71 241L159.86 241C151.58 241 144.86 247.72 144.86 256C144.86 264.28 151.58 271 159.86 271L177 271L177 288.13C177 296.42 183.71 303.13 192 303.13C200.28 303.13 207 296.42 207 288.13L207 270.8C230.99 268.62 249.84 248.41 249.84 223.87C249.85 197.88 228.7 176.73 202.71 176.73Z" />
		</g>
	</g>
	<g id="Layer">
		<g id="Layer">
			<path id="Layer" class="shp0" d="M272.33 353.47L111.67 353.47C103.38 353.47 96.67 360.18 96.67 368.47C96.67 376.75 103.38 383.47 111.67 383.47L272.33 383.47C280.62 383.47 287.33 376.75 287.33 368.47C287.33 360.18 280.62 353.47 272.33 353.47Z" />
		</g>
	</g>
	<g id="Layer">
		<g id="Layer">
			<path id="Layer" fill-rule="evenodd" class="shp0" d="M383.73 15L383.73 452.82C383.73 456.79 382.15 460.61 379.34 463.42L335.16 507.61C332.23 510.54 328.39 512 324.55 512C320.71 512 316.87 510.54 313.94 507.61L280.37 474.03L246.79 507.61C243.98 510.42 240.16 512 236.18 512C232.2 512 228.39 510.42 225.58 507.61L192 474.03L158.42 507.61C155.61 510.42 151.8 512 147.82 512C143.84 512 140.02 510.42 137.21 507.61L103.63 474.03L70.06 507.61C64.2 513.46 54.7 513.46 48.84 507.61L4.66 463.42C1.85 460.61 0.27 456.79 0.27 452.82L0.27 15C0.27 6.72 6.98 0 15.27 0L368.73 0C377.02 0 383.73 6.72 383.73 15ZM353.73 446.6L353.73 446.6L353.73 30L30.27 30L30.27 446.6L59.45 475.79L93.03 442.21C95.84 439.4 99.65 437.82 103.63 437.82C107.61 437.82 111.43 439.4 114.24 442.21L147.82 475.79L181.39 442.21C187.25 436.35 196.75 436.35 202.61 442.21L236.18 475.79L269.76 442.21C272.57 439.4 276.39 437.82 280.37 437.82C284.34 437.82 288.16 439.4 290.97 442.21L324.55 475.79L353.73 446.6Z" />
		</g>
	</g>
	<g id="Layer">
	</g>
	<g id="Layer">
	</g>
	<g id="Layer">
	</g>
	<g id="Layer">
	</g>
	<g id="Layer">
	</g>
	<g id="Layer">
	</g>
	<g id="Layer">
	</g>
	<g id="Layer">
	</g>
	<g id="Layer">
	</g>
	<g id="Layer">
	</g>
	<g id="Layer">
	</g>
	<g id="Layer">
	</g>
	<g id="Layer">
	</g>
	<g id="Layer">
	</g>
	<g id="Layer">
	</g>
</svg>