<svg id="_001-location" data-name="001-location" xmlns="http://www.w3.org/2000/svg" width="58.29" height="93.205" viewBox="0 0 58.29 93.205">
  <path id="Path_1" data-name="Path 1" d="M187.347,107.967A15.277,15.277,0,1,0,172.068,92.69,15.3,15.3,0,0,0,187.347,107.967Zm0-25.093a9.816,9.816,0,1,1-9.818,9.816A9.828,9.828,0,0,1,187.347,82.873Z" transform="translate(-158.202 -63.321)" fill="#be4d9d"/>
  <path id="Path_2" data-name="Path 2" d="M108.407,56.82c4.139,5.6,2.476,3.424,14.4,20.444a2.731,2.731,0,0,0,4.477,0c11.975-17.1,10.327-14.935,14.4-20.446,4.124-5.584,8.389-11.357,10.726-18.123,3.382-9.794,1.92-19.485-4.117-27.287h0a29.383,29.383,0,0,0-46.491,0c-6.037,7.8-7.5,17.493-4.116,27.287,2.337,6.766,6.6,12.539,10.726,18.123Zm-2.29-42.068a23.921,23.921,0,0,1,37.853,0h0c4.873,6.3,6.035,14.168,3.274,22.163-2.064,5.976-6.076,11.408-9.957,16.661-3.021,4.09-2.117,2.839-12.243,17.354-10.116-14.5-9.223-13.266-12.243-17.354-3.88-5.253-7.893-10.685-9.957-16.661-2.761-8-1.6-15.866,3.274-22.163Z" transform="translate(-95.898 0)" fill="#be4d9d"/>
  <path id="Path_3" data-name="Path 3" d="M119.41,371.449a2.731,2.731,0,0,0-3.767-.85l-7.764,4.9a2.732,2.732,0,0,0,0,4.617l24.466,15.453a2.731,2.731,0,0,0,2.916,0l24.466-15.453a2.732,2.732,0,0,0,0-4.617l-7.764-4.9a2.73,2.73,0,1,0-2.916,4.617l4.109,2.6L133.8,390.035l-19.353-12.224,4.109-2.6A2.73,2.73,0,0,0,119.41,371.449Z" transform="translate(-104.659 -302.79)" fill="#be4d9d"/>
</svg>
