<svg xmlns="http://www.w3.org/2000/svg" width="13" height="13" viewBox="0 0 13 13">
  <defs>
    <style>
      .cls-1 {
        fill: #299fd8;
        fill-rule: evenodd;
      }
    </style>
  </defs>
  <path id="_" data-name="      " class="cls-1" d="M6.687,0.708A5.813,5.813,0,1,0,12.5,6.521,5.812,5.812,0,0,0,6.687.708Zm3.375,6.469a0.282,0.282,0,0,1-.281.281H7.625V9.614a0.282,0.282,0,0,1-.281.281H6.031A0.282,0.282,0,0,1,5.75,9.614V7.458H3.594a0.282,0.282,0,0,1-.281-0.281V5.864a0.282,0.282,0,0,1,.281-0.281H5.75V3.427a0.282,0.282,0,0,1,.281-0.281H7.344a0.282,0.282,0,0,1,.281.281V5.583H9.781a0.282,0.282,0,0,1,.281.281V7.177Zm46.043-1a7.426,7.426,0,0,0-13.337,0,0.9,0.9,0,0,0-.082.342,0.9,0.9,0,0,0,.082.342,7.426,7.426,0,0,0,13.337,0,0.9,0.9,0,0,0,.082-0.342A0.9,0.9,0,0,0,56.106,6.178ZM49.437,9.9a3.375,3.375,0,1,1,3.375-3.375v0A3.375,3.375,0,0,1,49.439,9.9h0Zm0-5.625a2.683,2.683,0,0,0-.593.089,1.31,1.31,0,0,1,.218.665,1.122,1.122,0,0,1-1.121,1.121,1.31,1.31,0,0,1-.665-0.218,2.694,2.694,0,0,0-.078.588,2.245,2.245,0,1,0,2.245-2.245H49.437Z"/>
</svg>
