<svg xmlns="http://www.w3.org/2000/svg" viewBox="0 0 513 512" width="513" height="512">
	<style>
		tspan { white-space:pre }
		.shp0 { fill: #a4a4a4 } 
	</style>
	<path id="Layer" class="shp0" d="M481.13 267.32C472.91 266.33 465.44 272.21 464.46 280.44C452.13 383.73 364.16 461.63 259.84 461.63C211.85 461.63 165.13 444.8 128.29 414.25C95.82 387.33 72.38 351.02 61.21 310.8L79.13 320.65C86.39 324.64 95.51 321.98 99.5 314.72C103.48 307.46 100.83 298.34 93.57 294.35L47.54 269.07C40.29 265.09 31.17 267.73 27.18 274.98L1.86 320.95C-2.13 328.21 0.51 337.33 7.77 341.33C17.12 345.62 24.4 341.67 28.14 335.43L34.03 324.73C47.43 368.46 73.56 407.84 109.14 437.34C151.36 472.34 204.87 491.62 259.83 491.62C379.34 491.62 480.12 402.36 494.24 283.99C495.23 275.77 489.35 268.3 481.13 267.32L481.13 267.32Z" />
	<path id="Layer" class="shp0" d="M502.93 148.09C495.33 144.82 486.5 148.32 483.22 155.93L478.5 166.88C463.1 129.28 437.96 95.76 405.76 70.43C363.8 37.44 313.34 20 259.84 20C205.36 20 152.21 38.98 110.18 73.43C68.72 107.41 39.83 154.83 28.83 206.96C27.12 215.06 32.3 223.02 40.41 224.73C50.43 225.06 56.69 220.21 58.18 213.15C67.78 167.68 93 126.3 129.19 96.63C165.88 66.56 212.28 50 259.84 50C306.55 50 350.6 65.22 387.21 94.01C416.9 117.36 439.7 148.66 452.88 183.69L433.89 175.52C426.29 172.25 417.46 175.77 414.19 183.38C410.91 190.98 414.43 199.81 422.04 203.08L470.29 223.84C478.96 226.51 486.3 225.02 489.99 216L510.77 167.8C514.05 160.2 510.54 151.38 502.93 148.09L502.93 148.09Z" />
	<path id="Layer" fill-rule="evenodd" class="shp0" d="M183.54 304.25L183.54 310.26C183.54 325.23 195.75 337.41 210.75 337.41L216.98 337.41L216.98 255.08L190.3 247.63C168.66 241.59 153.54 221.69 153.54 199.24C153.54 167.73 179.2 142.09 210.74 142.09L216.98 142.09L216.98 117.52C216.98 109.24 223.7 102.52 231.98 102.52C240.27 102.52 246.98 109.24 246.98 117.52L246.98 142.09L265.02 142.09L265.02 117.52C265.02 109.24 271.73 102.52 280.02 102.52C288.3 102.52 295.01 109.24 295.01 117.52L295.01 142.09L301.25 142.09C332.79 142.09 358.45 167.73 358.45 199.24L358.45 201.66C358.45 209.94 351.74 216.66 343.45 216.66C335.17 216.66 328.46 209.94 328.46 201.66L328.46 199.24C328.46 184.27 316.25 172.09 301.25 172.09L295.01 172.09L295.01 245.72L321.7 253.17C343.34 259.21 358.46 279.11 358.46 301.56L358.46 310.26C358.46 341.77 332.79 367.41 301.25 367.41L295.02 367.41L295.02 394.11C295.02 402.39 288.3 409.11 280.02 409.11C271.73 409.11 265.02 402.39 265.02 394.11L265.02 367.41L246.98 367.41L246.98 394.11C246.98 402.39 240.27 409.11 231.98 409.11C223.7 409.11 216.98 402.39 216.98 394.11L216.98 367.41L210.75 367.41C179.2 367.41 153.54 341.77 153.54 310.26L153.54 304.25C153.54 295.96 160.26 289.25 168.54 289.25C176.82 289.25 183.54 295.96 183.54 304.25ZM295.02 276.86L295.02 337.41L301.25 337.41C316.25 337.41 328.46 325.23 328.46 310.26L328.46 301.56C328.46 292.52 322.36 284.5 313.63 282.06L295.02 276.86ZM246.98 172.09L246.98 232.31L265.02 237.34L265.02 172.09L246.98 172.09ZM216.98 223.93L216.98 172.09L210.75 172.09C195.75 172.09 183.54 184.27 183.54 199.24C183.54 208.29 189.64 216.3 198.36 218.74L216.98 223.93ZM246.98 337.41L265.02 337.41L265.02 268.49L246.98 263.46L246.98 337.41Z" />
</svg>