<svg xmlns="http://www.w3.org/2000/svg" width="15" height="11" viewBox="0 0 15 11">
  <defs>
    <style>
      .cls-1 {
        fill: #299fd8;
        fill-rule: evenodd;
      }
    </style>
  </defs>
  <path id="_" data-name="      " class="cls-1" d="M-35.313-.292a5.812,5.812,0,0,0-5.812,5.812,5.812,5.812,0,0,0,5.813,5.813A5.811,5.811,0,0,0-29.5,5.521,5.811,5.811,0,0,0-35.313-.292Zm3.375,6.469a0.282,0.282,0,0,1-.281.281h-2.156V8.614a0.282,0.282,0,0,1-.281.281h-1.312a0.282,0.282,0,0,1-.281-0.281V6.458h-2.156a0.282,0.282,0,0,1-.281-0.281V4.864a0.282,0.282,0,0,1,.281-0.281h2.156V2.427a0.282,0.282,0,0,1,.281-0.281h1.313a0.282,0.282,0,0,1,.281.281V4.583h2.156a0.282,0.282,0,0,1,.281.281V6.177Zm46.043-1A7.517,7.517,0,0,0,7.437,1.021,7.518,7.518,0,0,0,.769,5.179a0.9,0.9,0,0,0-.082.342,0.9,0.9,0,0,0,.082.342,7.517,7.517,0,0,0,6.668,4.158,7.518,7.518,0,0,0,6.668-4.158,0.9,0.9,0,0,0,.082-0.342A0.9,0.9,0,0,0,14.106,5.178ZM7.437,8.9a3.375,3.375,0,1,1,3.375-3.375v0A3.375,3.375,0,0,1,7.439,8.9h0Zm0-5.625a2.683,2.683,0,0,0-.593.089,1.311,1.311,0,0,1,.218.665A1.122,1.122,0,0,1,5.941,5.146a1.311,1.311,0,0,1-.665-0.218,2.694,2.694,0,0,0-.078.588A2.245,2.245,0,1,0,7.443,3.271H7.437Z"/>
</svg>
